<svg width="8" height="14" viewBox="0 0 8 14" fill="none" xmlns="http://www.w3.org/2000/svg">
<path d="M7.78303 6.45372L1.7232 0.223657C1.58304 0.0794465 1.39594 0 1.19645 0C0.99695 0 0.809854 0.0794465 0.669697 0.223657L0.223432 0.682352C-0.0669557 0.981244 -0.0669557 1.46703 0.223432 1.76547L5.31203 6.9971L0.217786 12.2345C0.0776292 12.3787 0.000244141 12.571 0.000244141 12.776C0.000244141 12.9812 0.0776292 13.1734 0.217786 13.3178L0.664051 13.7763C0.804318 13.9206 0.991304 14 1.1908 14C1.3903 14 1.57739 13.9206 1.71755 13.7763L7.78303 7.54059C7.92352 7.39592 8.00068 7.20277 8.00024 6.99744C8.00068 6.79131 7.92352 6.59827 7.78303 6.45372Z" fill="#253D4E"/>
</svg>
