<svg width="20" height="20" viewBox="0 0 20 20" fill="none" xmlns="http://www.w3.org/2000/svg">
<path d="M10 0C4.48 0 0 4.48 0 10C0 15.52 4.48 20 10 20C15.52 20 20 15.52 20 10C20 4.48 15.52 0 10 0ZM5.35 16.5C6.66 15.56 8.26 15 10 15C11.74 15 13.34 15.56 14.65 16.5C13.34 17.44 11.74 18 10 18C8.26 18 6.66 17.44 5.35 16.5ZM16.14 15.12C14.45 13.8 12.32 13 10 13C7.68 13 5.55 13.8 3.86 15.12C2.7 13.73 2 11.95 2 10C2 5.58 5.58 2 10 2C14.42 2 18 5.58 18 10C18 11.95 17.3 13.73 16.14 15.12Z" fill="white"/>
<path d="M10.5 4C8.57 4 7 5.57 7 7.5C7 9.43 8.57 11 10.5 11C12.43 11 14 9.43 14 7.5C14 5.57 12.43 4 10.5 4ZM10.5 9C9.67 9 9 8.33 9 7.5C9 6.67 9.67 6 10.5 6C11.33 6 12 6.67 12 7.5C12 8.33 11.33 9 10.5 9Z" fill="white"/>
</svg>
