<svg width="113" height="109" viewBox="0 0 113 109" fill="none" xmlns="http://www.w3.org/2000/svg">
<path d="M28.4485 93.4307L13.8934 90.2309C12.5703 89.9643 11.5117 89.2745 10.7178 88.1617C9.92389 87.0525 9.61514 85.8312 9.79157 84.498L11.2471 69.4323L1.32319 57.9664C0.441062 56.9887 0 55.8332 0 54.5C0 53.1668 0.441062 52.0113 1.32319 51.0336L11.2471 39.5677L9.79157 24.502C9.61514 23.1688 9.92389 21.9475 10.7178 20.8383C11.5117 19.7255 12.5703 19.0357 13.8934 18.7691L28.4485 15.5693L36.123 2.50353C36.8287 1.34806 37.799 0.592552 39.034 0.237021C40.2689 -0.11851 41.5039 -0.0740691 42.7389 0.370345L56.5 6.23661L70.2611 0.370345C71.4961 -0.0740691 72.7311 -0.11851 73.966 0.237021C75.201 0.592552 76.1714 1.34806 76.8771 2.50353L84.5515 15.5693L99.1066 18.7691C100.43 19.0357 101.488 19.7255 102.282 20.8383C103.076 21.9475 103.385 23.1688 103.208 24.502L101.753 39.5677L111.677 51.0336C112.559 52.0113 113 53.1668 113 54.5C113 55.8332 112.559 56.9887 111.677 57.9664L101.753 69.4323L103.208 84.498C103.385 85.8312 103.076 87.0525 102.282 88.1617C101.488 89.2745 100.43 89.9643 99.1066 90.2309L84.5515 93.4307L76.8771 106.496C76.1714 107.652 75.201 108.407 73.966 108.763C72.7311 109.119 71.4961 109.074 70.2611 108.63L56.5 102.763L42.7389 108.63C41.5039 109.074 40.2689 109.119 39.034 108.763C37.799 108.407 36.8287 107.652 36.123 106.496L28.4485 93.4307ZM47.2377 69.699C48.208 70.6767 49.443 71.1655 50.9426 71.1655C52.4422 71.1655 53.6772 70.6767 54.6475 69.699L77.1417 47.0338C78.2002 45.9673 78.7295 44.6998 78.7295 43.2314C78.7295 41.7666 78.2002 40.501 77.1417 39.4344C76.0831 38.3678 74.827 37.8345 73.3733 37.8345C71.916 37.8345 70.6581 38.3678 69.5995 39.4344L50.9426 58.2331L43.2682 50.6336C42.2096 49.6559 40.9535 49.1884 39.4997 49.231C38.0425 49.2772 36.8287 49.7892 35.8583 50.7669C34.888 51.7446 34.4028 52.989 34.4028 54.5C34.4028 56.011 34.888 57.2554 35.8583 58.2331L47.2377 69.699Z" fill="#079F85"/>
</svg>
